<svg width="272" height="41" viewBox="0 0 272 41" fill="none" xmlns="http://www.w3.org/2000/svg">
<path fill-rule="evenodd" clip-rule="evenodd" d="M7.82902 36.2195C11.2605 38.8771 15.5638 40.4703 20.2382 40.4703C25.3469 40.4703 30.0108 38.5725 33.5683 35.4562C33.6104 35.4177 33.5893 35.3931 33.5473 35.4177C31.9507 36.4821 27.4022 38.8106 20.2382 38.8106C14.0126 38.8106 10.077 37.424 7.85353 36.181C7.81151 36.16 7.79751 36.1915 7.82902 36.2195ZM21.6112 37.252C26.5903 37.252 32.0631 35.897 35.3335 33.2078C36.2299 32.476 37.0842 31.4991 37.8476 30.1896C38.2887 29.4368 38.7159 28.5404 39.0661 27.658C39.0836 27.616 39.0556 27.595 39.0241 27.644C35.9813 32.1259 27.1681 34.9201 18.0678 34.9201C11.6355 34.9201 4.71664 32.8612 2.0065 28.9326C1.97849 28.894 1.95398 28.9115 1.96799 28.9536C4.49255 34.3213 12.1503 37.252 21.6112 37.252ZM16.1698 28.3471C5.81244 28.3471 0.92789 23.5221 0.0455191 20.2307C0.0350147 20.1817 0 20.1922 0 20.2342C0 21.3442 0.112047 22.7763 0.304628 23.7252C0.392165 24.1839 0.770324 24.9122 1.32005 25.4899C3.83061 28.1055 10.0807 31.7681 20.9108 31.7681C35.6625 31.7681 39.0344 26.852 39.7242 25.2343C40.2179 24.0788 40.4735 21.9885 40.4735 20.2342C40.4735 19.8105 40.463 19.4709 40.4455 19.1383C40.4455 19.0857 40.414 19.0787 40.4035 19.1313C39.6682 23.0879 27.0629 28.3471 16.1698 28.3471ZM1.95396 11.5549C1.35871 12.7314 0.700431 14.7202 0.504349 15.7497C0.420314 16.1909 0.45883 16.401 0.612895 16.7301C1.85242 19.3667 8.13055 23.5825 22.7772 23.5825C31.713 23.5825 38.6529 21.387 39.7769 17.3779C39.9834 16.6391 39.9939 15.8617 39.7313 14.8113C39.4337 13.6383 38.877 12.2692 38.4043 11.3098C38.3903 11.2783 38.3623 11.2853 38.3658 11.3203C38.5408 16.576 23.8907 19.9655 16.4991 19.9655C8.49121 19.9655 1.8104 16.7721 1.8104 12.7419C1.8104 12.3568 1.89093 11.9681 1.98897 11.5654C1.99948 11.5269 1.96796 11.5234 1.95396 11.5549ZM33.6003 5.10197C33.6844 5.23502 33.7264 5.37858 33.7264 5.56766C33.7264 7.81561 26.8495 11.7933 15.9004 11.7933C7.85401 11.7933 6.34838 8.80652 6.34838 6.90873C6.34838 6.22944 6.60748 5.53615 7.18173 4.83235C7.21324 4.78683 7.18523 4.77283 7.15021 4.80434C6.10677 5.69021 5.14387 6.68813 4.30352 7.76309C3.90085 8.2708 3.64874 8.72249 3.64874 8.9921C3.64874 12.9278 13.5124 15.7815 22.7353 15.7815C32.5604 15.7815 36.9477 12.5741 36.9477 9.75192C36.9477 8.7435 36.5521 8.15525 35.5507 7.01727C34.8994 6.27146 34.2831 5.66921 33.6318 5.07396C33.6003 5.04945 33.5793 5.07045 33.6003 5.10197ZM30.5892 2.8537C27.5535 1.03293 24.0345 0 20.2389 0C16.4153 0 12.7878 1.07145 9.74147 2.93773C8.83109 3.49797 8.31637 3.94966 8.31637 4.5274C8.31637 6.23612 12.3046 8.07089 19.3775 8.07089C26.377 8.07089 31.8077 6.06105 31.8077 4.12473C31.8077 3.66254 31.4051 3.3404 30.5892 2.8537V2.8537Z" fill="white"/>
<path fill-rule="evenodd" clip-rule="evenodd" d="M54.6933 22.2416H59.6934L57.1828 14.9831L54.6933 22.2416ZM55.8907 12.2662H58.5658L64.6478 28.394H61.8151L60.4776 24.5458H53.8878L52.5748 28.394H49.8086L55.8907 12.2662V12.2662Z" fill="white"/>
<path fill-rule="evenodd" clip-rule="evenodd" d="M67.596 14.6822H62.5049V12.2662H75.3378V14.6822H70.2466V28.394H67.596V14.6822" fill="white"/>
<path fill-rule="evenodd" clip-rule="evenodd" d="M78.9354 15.7877C78.9354 16.2043 79.0369 16.593 79.247 16.9537C79.4536 17.3143 79.8948 17.8535 80.5705 18.5783C81.4634 18.0566 82.1042 17.5699 82.4964 17.1252C82.8885 16.6805 83.0846 16.2184 83.0846 15.7422C83.0846 15.2204 82.9025 14.7968 82.5419 14.4746C82.1812 14.1525 81.7015 13.9914 81.1028 13.9914C80.455 13.9914 79.9333 14.156 79.5341 14.4886C79.1349 14.8178 78.9354 15.2519 78.9354 15.7877ZM80.2725 26.572C81.5155 26.572 82.5904 26.0047 83.4973 24.8667L79.8348 21.0431C79.0329 21.5333 78.4482 22.0306 78.07 22.5278C77.6954 23.0285 77.5063 23.5712 77.5063 24.1524C77.5063 24.8737 77.7549 25.4585 78.2556 25.9032C78.7528 26.3514 79.4251 26.572 80.2725 26.572ZM79.9707 28.6452C78.4651 28.6452 77.2606 28.2565 76.3537 27.4722C75.4468 26.6879 74.9951 25.6514 74.9951 24.3594C74.9951 23.4385 75.2927 22.5841 75.8915 21.7928C76.4902 21.0015 77.3831 20.2977 78.5666 19.6849C77.8138 18.8831 77.2956 18.2073 77.0085 17.6541C76.7248 17.1008 76.5848 16.5021 76.5848 15.8578C76.5848 14.7233 77.0015 13.7955 77.8383 13.0812C78.6752 12.3669 79.7571 12.0097 81.0772 12.0097C82.3972 12.0097 83.4547 12.3423 84.246 13.0006C85.0373 13.6624 85.433 14.5378 85.433 15.6267C85.433 17.1779 84.232 18.5995 81.837 19.8915L84.8343 23.0463C85.1389 22.6017 85.447 22.0939 85.7551 21.5267L86.7005 19.7515H89.0955L87.737 22.241C87.3833 22.9028 86.9211 23.6556 86.3539 24.4995L90.1565 28.3931H87.0682L84.9708 26.2502C84.281 27.066 83.5282 27.6683 82.7124 28.0605C81.9 28.4526 80.9861 28.6452 79.9707 28.6452V28.6452Z" fill="white"/>
<path fill-rule="evenodd" clip-rule="evenodd" d="M93.3109 14.6822H88.2197V12.2662H101.056V14.6822H95.9615V28.394H93.3109V14.6822" fill="white"/>
<path fill-rule="evenodd" clip-rule="evenodd" d="M108.91 28.394H110.111V12.2662H108.91V28.394Z" fill="white"/>
<path fill-rule="evenodd" clip-rule="evenodd" d="M116.183 28.6249C115.381 28.6249 114.656 28.5339 114.005 28.3588C113.35 28.1837 112.709 27.9036 112.079 27.5184L112.471 26.573C113.732 27.2488 114.943 27.5885 116.113 27.5885C117.111 27.5885 117.878 27.3924 118.417 27.0002C118.952 26.6081 119.222 26.0513 119.222 25.33C119.222 24.7313 119.012 24.2516 118.588 23.8909C118.168 23.5268 117.419 23.1871 116.344 22.865L115.721 22.6794C114.523 22.3258 113.672 21.8986 113.175 21.4014C112.674 20.9007 112.426 20.2354 112.426 19.409C112.426 18.4846 112.783 17.7318 113.497 17.1506C114.211 16.5658 115.129 16.2752 116.249 16.2752C117.587 16.2752 118.847 16.6043 120.027 17.2661L119.66 18.187C118.553 17.6023 117.408 17.3116 116.228 17.3116C115.43 17.3116 114.789 17.4937 114.313 17.8649C113.837 18.2325 113.599 18.7227 113.599 19.339C113.599 19.7242 113.679 20.0498 113.84 20.3159C114.005 20.5855 114.264 20.8271 114.625 21.0442C114.985 21.2578 115.483 21.4574 116.113 21.643L116.733 21.8285C118.07 22.2102 119.016 22.6619 119.569 23.1731C120.122 23.6913 120.399 24.3846 120.399 25.26C120.399 26.2894 120.017 27.1088 119.257 27.7145C118.497 28.3203 117.471 28.6249 116.183 28.6249" fill="white"/>
<path fill-rule="evenodd" clip-rule="evenodd" d="M128.321 17.5182C127.954 17.4552 127.607 17.4272 127.285 17.4272C126.641 17.4272 125.979 17.5708 125.303 17.8649C124.627 18.1555 123.997 18.5722 123.416 19.1079V28.3938H122.264V16.5028H123.206L123.367 18.0259C123.969 17.4552 124.62 17.021 125.327 16.7234C126.035 16.4223 126.749 16.2752 127.47 16.2752C127.807 16.2752 128.146 16.3137 128.486 16.3908L128.321 17.5182" fill="white"/>
<path fill-rule="evenodd" clip-rule="evenodd" d="M133.098 27.5883C133.806 27.5883 134.53 27.4272 135.276 27.1051C136.022 26.7794 136.68 26.3523 137.248 25.813V22.6337H133.54C131.477 22.6337 130.451 23.4951 130.451 25.2143C130.451 25.9216 130.696 26.4923 131.187 26.93C131.68 27.3677 132.318 27.5883 133.098 27.5883ZM132.982 28.6249C131.83 28.6249 130.927 28.3203 130.265 27.7145C129.604 27.1088 129.274 26.2824 129.274 25.2355C129.274 24.0695 129.621 23.1836 130.311 22.5744C131.004 21.9686 132.023 21.6675 133.375 21.6675H137.247V21.0897C137.247 18.5722 136.165 17.3116 133.998 17.3116C133.354 17.3116 132.734 17.3957 132.142 17.5637C131.55 17.7318 130.927 18.0014 130.265 18.3691L129.852 17.4937C130.601 17.0665 131.316 16.7549 131.981 16.5623C132.65 16.3697 133.375 16.2752 134.159 16.2752C136.985 16.2752 138.399 17.8404 138.399 20.9742V28.3938H137.454L137.293 26.9197C136.694 27.4414 136.011 27.8581 135.241 28.1627C134.474 28.4708 133.721 28.6249 132.982 28.6249V28.6249Z" fill="white"/>
<path fill-rule="evenodd" clip-rule="evenodd" d="M145.755 17.3117C145.003 17.3117 144.323 17.5077 143.718 17.8999C143.112 18.2886 142.622 18.8278 142.254 19.5106C141.886 20.1934 141.662 20.9602 141.585 21.804H149.512V21.6185C149.512 20.7886 149.351 20.0358 149.029 19.36C148.707 18.6842 148.262 18.173 147.702 17.8299C147.142 17.4832 146.494 17.3117 145.755 17.3117ZM146.193 28.6249C145.01 28.6249 143.984 28.3553 143.105 27.8196C142.229 27.2803 141.557 26.545 141.091 25.6171C140.622 24.6892 140.388 23.6318 140.388 22.4483C140.388 21.2368 140.633 20.1548 141.127 19.2129C141.617 18.2675 142.268 17.5427 143.084 17.035C143.896 16.5273 144.789 16.2752 145.755 16.2752C146.753 16.2752 147.625 16.5133 148.371 16.9895C149.117 17.4657 149.688 18.117 150.087 18.9468C150.486 19.7767 150.689 20.7116 150.689 21.7585C150.689 22.0947 150.672 22.4343 150.64 22.7704H141.564C141.61 23.7403 141.837 24.5877 142.254 25.3195C142.667 26.0478 143.217 26.6081 143.903 27.0002C144.586 27.3924 145.349 27.5885 146.193 27.5885C146.977 27.5885 147.646 27.5149 148.199 27.3679C148.753 27.2243 149.334 26.9722 149.95 26.6186L150.363 27.4939C149.733 27.8931 149.092 28.1837 148.441 28.3588C147.786 28.5339 147.04 28.6249 146.193 28.6249V28.6249Z" fill="white"/>
<path fill-rule="evenodd" clip-rule="evenodd" d="M152.748 28.3928H153.9V11.113H152.748V28.3928Z" fill="white"/>
<path fill-rule="evenodd" clip-rule="evenodd" d="M162.798 20.7427H166.713C167.959 20.7427 168.933 20.4136 169.64 19.7518C170.347 19.0935 170.701 18.1797 170.701 17.0102C170.701 15.8582 170.351 14.9653 169.65 14.328C168.954 13.6873 167.973 13.3686 166.713 13.3686H162.798V20.7427ZM166.758 21.8497H162.798V28.394H161.597V12.2662H166.691C168.348 12.2662 169.64 12.6793 170.56 13.5092C171.481 14.339 171.944 15.505 171.944 17.0107C171.944 18.2397 171.597 19.2726 170.907 20.1095C170.217 20.9463 169.261 21.489 168.05 21.7342L172.381 28.394H170.953L166.758 21.8497V21.8497Z" fill="white"/>
<path fill-rule="evenodd" clip-rule="evenodd" d="M176.156 15.5119C176.156 15.897 176.209 16.2402 176.317 16.5378C176.426 16.8389 176.625 17.1786 176.916 17.5637C177.206 17.9489 177.669 18.4636 178.299 19.1079C179.542 18.4006 180.435 17.7563 180.971 17.1716C181.51 16.5903 181.779 15.9811 181.779 15.3508C181.779 14.6925 181.527 14.1463 181.03 13.7156C180.529 13.2849 179.889 13.0714 179.104 13.0714C178.215 13.0714 177.501 13.2954 176.961 13.7401C176.426 14.1848 176.156 14.7766 176.156 15.5119ZM178.022 27.5884C178.866 27.5884 179.643 27.3643 180.35 26.9196C181.054 26.4749 181.74 25.7676 182.399 24.7977L177.952 20.3298C176.786 20.9881 175.931 21.6569 175.396 22.3327C174.856 23.0084 174.59 23.7402 174.59 24.5246C174.59 25.4595 174.898 26.2053 175.522 26.7585C176.145 27.3118 176.978 27.5884 178.022 27.5884ZM177.931 28.6247C176.548 28.6247 175.448 28.257 174.636 27.5182C173.82 26.7794 173.414 25.7885 173.414 24.5455C173.414 22.6862 174.703 21.058 177.283 19.6609C176.702 19.0622 176.247 18.5475 175.925 18.1168C175.602 17.6861 175.368 17.2799 175.221 16.8948C175.077 16.5131 175.004 16.0579 175.004 15.5362C175.004 14.5068 175.385 13.6664 176.145 13.0116C176.905 12.3604 177.892 12.0347 179.104 12.0347C180.242 12.0347 181.163 12.3359 181.87 12.9451C182.577 13.5509 182.931 14.3457 182.931 15.3296C182.931 16.0964 182.609 16.8458 181.961 17.5741C181.317 18.3059 180.319 19.0377 178.967 19.7765L183.068 23.8767C183.498 23.1869 183.89 22.5111 184.244 21.8494L185.326 19.752H186.478L185.281 22.0349C184.79 22.9558 184.304 23.7997 183.827 24.57L187.655 28.3936H186.065L183.138 25.4909C181.646 27.5813 179.913 28.6247 177.931 28.6247V28.6247Z" fill="white"/>
<path fill-rule="evenodd" clip-rule="evenodd" d="M200.761 20.3296C200.761 18.1621 200.176 16.4604 198.999 15.2244C197.823 13.9884 196.191 13.3686 194.104 13.3686H190.533V27.287H194.104C196.191 27.287 197.823 26.6707 198.999 25.4312C200.176 24.1952 200.761 22.4935 200.761 20.3296ZM202.007 20.3301C202.007 21.9898 201.682 23.4289 201.027 24.6509C200.376 25.8694 199.455 26.8008 198.275 27.4381C197.091 28.0753 195.708 28.394 194.126 28.394H189.332V12.2662H194.126C195.771 12.2662 197.182 12.6023 198.366 13.2781C199.549 13.9539 200.453 14.8993 201.072 16.1143C201.696 17.3258 202.007 18.7334 202.007 20.3301V20.3301Z" fill="white"/>
<path fill-rule="evenodd" clip-rule="evenodd" d="M216.087 28.6247C214.581 28.6247 213.254 28.2605 212.109 27.5287C210.964 26.8004 210.085 25.8095 209.473 24.556C208.856 23.306 208.552 21.8949 208.552 20.3297C208.552 18.7015 208.884 17.2519 209.553 15.9844C210.222 14.7169 211.122 13.7434 212.26 13.0607C213.398 12.3744 214.672 12.0347 216.087 12.0347C216.899 12.0347 217.705 12.1468 218.503 12.3674C219.305 12.5915 220.019 12.9031 220.649 13.3023L220.257 14.2687C218.92 13.5299 217.554 13.1622 216.153 13.1622C214.865 13.1622 213.737 13.4703 212.778 14.0831C211.819 14.6993 211.08 15.5467 210.569 16.6322C210.05 17.7141 209.795 18.9466 209.795 20.3297C209.795 21.7723 210.068 23.0399 210.614 24.1323C211.157 25.2213 211.91 26.0546 212.873 26.6324C213.832 27.2066 214.924 27.4937 216.153 27.4937C216.892 27.4937 217.596 27.3957 218.261 27.1961C218.93 26.9965 219.627 26.6744 220.348 26.2262L220.761 27.1961C220.103 27.6548 219.361 28.0084 218.538 28.257C217.719 28.5022 216.899 28.6247 216.087 28.6247" fill="white"/>
<path fill-rule="evenodd" clip-rule="evenodd" d="M226.992 17.3117C226.239 17.3117 225.56 17.5077 224.954 17.8999C224.345 18.2886 223.858 18.8278 223.49 19.5106C223.123 20.1934 222.898 20.9602 222.821 21.804H230.749V21.6185C230.749 20.7886 230.588 20.0358 230.266 19.36C229.94 18.6842 229.499 18.173 228.938 17.8299C228.378 17.4832 227.73 17.3117 226.992 17.3117ZM227.428 28.6249C226.245 28.6249 225.216 28.3553 224.34 27.8196C223.465 27.2803 222.793 26.545 222.327 25.6171C221.858 24.6892 221.623 23.6318 221.623 22.4483C221.623 21.2368 221.868 20.1548 222.358 19.2129C222.852 18.2675 223.503 17.5427 224.319 17.035C225.132 16.5273 226.024 16.2752 226.991 16.2752C227.989 16.2752 228.861 16.5133 229.606 16.9895C230.352 17.4657 230.923 18.117 231.322 18.9468C231.721 19.7767 231.921 20.7116 231.921 21.7585C231.921 22.0947 231.907 22.4343 231.875 22.7704H222.796C222.845 23.7403 223.073 24.5877 223.489 25.3195C223.903 26.0478 224.452 26.6081 225.135 27.0002C225.818 27.3924 226.585 27.5885 227.428 27.5885C228.213 27.5885 228.882 27.5149 229.435 27.3679C229.988 27.2243 230.569 26.9722 231.186 26.6186L231.599 27.4939C230.968 27.8931 230.328 28.1837 229.676 28.3588C229.022 28.5339 228.272 28.6249 227.428 28.6249V28.6249Z" fill="white"/>
<path fill-rule="evenodd" clip-rule="evenodd" d="M233.955 28.3938V16.5028H234.9L235.062 17.9804C236.49 16.8424 237.957 16.2752 239.463 16.2752C240.783 16.2752 241.784 16.6709 242.467 17.4622C243.15 18.2535 243.493 19.423 243.493 20.9742V28.3938H242.341V21.0897C242.341 18.6002 241.291 17.3572 239.186 17.3572C237.758 17.3572 236.396 17.9174 235.107 19.0379V28.3938H233.955" fill="white"/>
<path fill-rule="evenodd" clip-rule="evenodd" d="M249.97 28.6241C248.786 28.6241 247.911 28.2775 247.344 27.5877C246.773 26.8944 246.489 25.837 246.489 24.4084V17.472H244.276V16.502H246.535L246.745 13.0251H247.641V16.502H252.067V17.472H247.641V24.3138C247.641 26.4952 248.457 27.5877 250.085 27.5877C250.838 27.5877 251.552 27.3951 252.228 27.01L252.526 27.9098C252.19 28.1234 251.787 28.2985 251.318 28.4281C250.849 28.5576 250.4 28.6241 249.97 28.6241" fill="white"/>
<path fill-rule="evenodd" clip-rule="evenodd" d="M258.202 17.3117C257.449 17.3117 256.77 17.5077 256.164 17.8999C255.555 18.2886 255.068 18.8278 254.701 19.5106C254.333 20.1934 254.109 20.9602 254.032 21.804H261.959V21.6185C261.959 20.7886 261.798 20.0358 261.476 19.36C261.15 18.6842 260.709 18.173 260.149 17.8299C259.589 17.4832 258.941 17.3117 258.202 17.3117ZM258.639 28.6249C257.456 28.6249 256.426 28.3553 255.551 27.8196C254.676 27.2803 254.003 26.545 253.534 25.6171C253.069 24.6892 252.834 23.6318 252.834 22.4483C252.834 21.2368 253.079 20.1548 253.569 19.2129C254.063 18.2675 254.714 17.5427 255.53 17.035C256.342 16.5273 257.235 16.2752 258.202 16.2752C259.2 16.2752 260.072 16.5133 260.817 16.9895C261.563 17.4657 262.134 18.117 262.533 18.9468C262.932 19.7767 263.132 20.7116 263.132 21.7585C263.132 22.0947 263.118 22.4343 263.086 22.7704H254.007C254.056 23.7403 254.284 24.5877 254.7 25.3195C255.113 26.0478 255.663 26.6081 256.346 27.0002C257.029 27.3924 257.796 27.5885 258.639 27.5885C259.424 27.5885 260.093 27.5149 260.646 27.3679C261.195 27.2243 261.78 26.9722 262.397 26.6186L262.81 27.4939C262.179 27.8931 261.539 28.1837 260.887 28.3588C260.233 28.5339 259.483 28.6249 258.639 28.6249V28.6249Z" fill="white"/>
<path fill-rule="evenodd" clip-rule="evenodd" d="M271.225 17.5182C270.857 17.4552 270.51 17.4272 270.188 17.4272C269.544 17.4272 268.882 17.5708 268.206 17.8649C267.53 18.1555 266.9 18.5722 266.319 19.1079V28.3938H265.167V16.5028H266.109L266.27 18.0259C266.872 17.4552 267.523 17.021 268.231 16.7234C268.938 16.4223 269.652 16.2752 270.374 16.2752C270.71 16.2752 271.049 16.3137 271.389 16.3908L271.225 17.5182" fill="white"/>
</svg>
