<svg width="272" height="42" viewBox="0 0 272 42" fill="none" xmlns="http://www.w3.org/2000/svg">
<path fill-rule="evenodd" clip-rule="evenodd" d="M7.82902 37.009C11.2605 39.6666 15.5638 41.2598 20.2382 41.2598C25.3469 41.2598 30.0108 39.362 33.5683 36.2457C33.6104 36.2071 33.5893 36.1826 33.5473 36.2071C31.9507 37.2716 27.4022 39.6001 20.2382 39.6001C14.0126 39.6001 10.077 38.2135 7.85353 36.9705C7.81151 36.9495 7.79751 36.981 7.82902 37.009ZM21.6112 38.0415C26.5903 38.0415 32.0631 36.6865 35.3335 33.9973C36.2299 33.2655 37.0842 32.2886 37.8476 30.9791C38.2887 30.2263 38.7159 29.3299 39.0661 28.4475C39.0836 28.4055 39.0556 28.3845 39.0241 28.4335C35.9813 32.9154 27.1681 35.7096 18.0678 35.7096C11.6355 35.7096 4.71664 33.6507 2.0065 29.722C1.97849 29.6835 1.95398 29.701 1.96799 29.743C4.49255 35.1108 12.1503 38.0415 21.6112 38.0415ZM16.1698 29.1366C5.81244 29.1366 0.92789 24.3116 0.0455191 21.0202C0.0350147 20.9712 0 20.9817 0 21.0237C0 22.1337 0.112047 23.5658 0.304628 24.5147C0.392165 24.9734 0.770324 25.7017 1.32005 26.2794C3.83061 28.895 10.0807 32.5576 20.9108 32.5576C35.6625 32.5576 39.0344 27.6415 39.7242 26.0238C40.2179 24.8683 40.4735 22.778 40.4735 21.0237C40.4735 20.6 40.463 20.2604 40.4455 19.9278C40.4455 19.8752 40.414 19.8682 40.4035 19.9208C39.6682 23.8774 27.0629 29.1366 16.1698 29.1366ZM1.95396 12.3444C1.35871 13.5209 0.700431 15.5097 0.504349 16.5392C0.420314 16.9804 0.45883 17.1904 0.612895 17.5196C1.85242 20.1562 8.13055 24.372 22.7772 24.372C31.713 24.372 38.6529 22.1765 39.7769 18.1674C39.9834 17.4285 39.9939 16.6512 39.7313 15.6008C39.4337 14.4278 38.877 13.0587 38.4043 12.0993C38.3903 12.0678 38.3623 12.0748 38.3658 12.1098C38.5408 17.3655 23.8907 20.7549 16.4991 20.7549C8.49121 20.7549 1.8104 17.5616 1.8104 13.5314C1.8104 13.1462 1.89093 12.7576 1.98897 12.3549C1.99948 12.3164 1.96796 12.3129 1.95396 12.3444ZM33.6003 5.89146C33.6844 6.02451 33.7264 6.16807 33.7264 6.35715C33.7264 8.6051 26.8495 12.5828 15.9004 12.5828C7.85401 12.5828 6.34838 9.59601 6.34838 7.69822C6.34838 7.01893 6.60748 6.32564 7.18173 5.62184C7.21324 5.57632 7.18523 5.56232 7.15021 5.59383C6.10677 6.4797 5.14387 7.47762 4.30352 8.55258C3.90085 9.06029 3.64874 9.51198 3.64874 9.78159C3.64874 13.7172 13.5124 16.5709 22.7353 16.5709C32.5604 16.5709 36.9477 13.3636 36.9477 10.5414C36.9477 9.53299 36.5521 8.94474 35.5507 7.80676C34.8994 7.06095 34.2831 6.4587 33.6318 5.86345C33.6003 5.83893 33.5793 5.85994 33.6003 5.89146ZM30.5892 3.64319C27.5535 1.82242 24.0345 0.78949 20.2389 0.78949C16.4153 0.78949 12.7878 1.86094 9.74147 3.72722C8.83109 4.28746 8.31637 4.73915 8.31637 5.31689C8.31637 7.02561 12.3046 8.86038 19.3775 8.86038C26.377 8.86038 31.8077 6.85054 31.8077 4.91422C31.8077 4.45203 31.4051 4.12989 30.5892 3.64319Z" fill="#009FDB"/>
<path fill-rule="evenodd" clip-rule="evenodd" d="M54.6933 23.0311H59.6934L57.1828 15.7725L54.6933 23.0311ZM55.8907 13.0556H58.5658L64.6478 29.1834H61.8151L60.4776 25.3353H53.8878L52.5748 29.1834H49.8086L55.8907 13.0556Z" fill="#000105"/>
<path fill-rule="evenodd" clip-rule="evenodd" d="M67.596 15.4716H62.5049V13.0556H75.3378V15.4716H70.2466V29.1834H67.596V15.4716Z" fill="#000105"/>
<path fill-rule="evenodd" clip-rule="evenodd" d="M78.9354 16.5772C78.9354 16.9938 79.0369 17.3825 79.247 17.7432C79.4536 18.1038 79.8948 18.643 80.5705 19.3678C81.4634 18.8461 82.1042 18.3594 82.4964 17.9147C82.8885 17.47 83.0846 17.0078 83.0846 16.5316C83.0846 16.0099 82.9025 15.5862 82.5419 15.2641C82.1812 14.942 81.7015 14.7809 81.1028 14.7809C80.455 14.7809 79.9333 14.9455 79.5341 15.2781C79.1349 15.6073 78.9354 16.0414 78.9354 16.5772ZM80.2725 27.3615C81.5155 27.3615 82.5904 26.7942 83.4973 25.6562L79.8348 21.8326C79.0329 22.3228 78.4482 22.82 78.07 23.3173C77.6954 23.818 77.5063 24.3607 77.5063 24.9419C77.5063 25.6632 77.7549 26.248 78.2556 26.6927C78.7528 27.1409 79.4251 27.3615 80.2725 27.3615ZM79.9707 29.4347C78.4651 29.4347 77.2606 29.046 76.3537 28.2617C75.4468 27.4774 74.9951 26.4409 74.9951 25.1489C74.9951 24.228 75.2927 23.3736 75.8915 22.5823C76.4902 21.791 77.3831 21.0872 78.5666 20.4744C77.8138 19.6726 77.2956 18.9968 77.0085 18.4436C76.7248 17.8903 76.5848 17.2916 76.5848 16.6473C76.5848 15.5128 77.0015 14.5849 77.8383 13.8706C78.6752 13.1563 79.7571 12.7992 81.0772 12.7992C82.3972 12.7992 83.4547 13.1318 84.246 13.7901C85.0373 14.4519 85.433 15.3273 85.433 16.4162C85.433 17.9674 84.232 19.389 81.837 20.681L84.8343 23.8358C85.1389 23.3911 85.447 22.8834 85.7551 22.3162L86.7005 20.5409H89.0955L87.737 23.0305C87.3833 23.6923 86.9211 24.4451 86.3539 25.2889L90.1565 29.1826H87.0682L84.9708 27.0397C84.281 27.8555 83.5282 28.4578 82.7124 28.8499C81.9 29.2421 80.9861 29.4347 79.9707 29.4347Z" fill="#000105"/>
<path fill-rule="evenodd" clip-rule="evenodd" d="M93.3109 15.4716H88.2197V13.0556H101.056V15.4716H95.9615V29.1834H93.3109V15.4716Z" fill="#000105"/>
<path fill-rule="evenodd" clip-rule="evenodd" d="M108.91 29.1834H110.111V13.0556H108.91V29.1834Z" fill="#000105"/>
<path fill-rule="evenodd" clip-rule="evenodd" d="M116.183 29.4144C115.381 29.4144 114.656 29.3233 114.005 29.1483C113.35 28.9732 112.709 28.6931 112.079 28.3079L112.471 27.3625C113.732 28.0383 114.943 28.378 116.113 28.378C117.111 28.378 117.878 28.1819 118.417 27.7897C118.952 27.3975 119.222 26.8408 119.222 26.1195C119.222 25.5208 119.012 25.041 118.588 24.6804C118.168 24.3162 117.419 23.9766 116.344 23.6545L115.721 23.4689C114.523 23.1152 113.672 22.6881 113.175 22.1909C112.674 21.6901 112.426 21.0249 112.426 20.1985C112.426 19.2741 112.783 18.5213 113.497 17.9401C114.211 17.3553 115.129 17.0647 116.249 17.0647C117.587 17.0647 118.847 17.3938 120.027 18.0556L119.66 18.9765C118.553 18.3918 117.408 18.1011 116.228 18.1011C115.43 18.1011 114.789 18.2832 114.313 18.6544C113.837 19.022 113.599 19.5122 113.599 20.1285C113.599 20.5136 113.679 20.8393 113.84 21.1054C114.005 21.375 114.264 21.6166 114.625 21.8337C114.985 22.0473 115.483 22.2469 116.113 22.4325L116.733 22.618C118.07 22.9997 119.016 23.4514 119.569 23.9626C120.122 24.4808 120.399 25.1741 120.399 26.0495C120.399 27.0789 120.017 27.8983 119.257 28.504C118.497 29.1098 117.471 29.4144 116.183 29.4144Z" fill="#000105"/>
<path fill-rule="evenodd" clip-rule="evenodd" d="M128.321 18.3077C127.954 18.2447 127.607 18.2167 127.285 18.2167C126.641 18.2167 125.979 18.3602 125.303 18.6544C124.627 18.945 123.997 19.3617 123.416 19.8974V29.1833H122.264V17.2923H123.206L123.367 18.8154C123.969 18.2447 124.62 17.8105 125.327 17.5129C126.035 17.2118 126.749 17.0647 127.47 17.0647C127.807 17.0647 128.146 17.1032 128.486 17.1802L128.321 18.3077Z" fill="#000105"/>
<path fill-rule="evenodd" clip-rule="evenodd" d="M133.098 28.3778C133.806 28.3778 134.53 28.2167 135.276 27.8946C136.022 27.5689 136.68 27.1418 137.248 26.6025V23.4232H133.54C131.477 23.4232 130.451 24.2846 130.451 26.0038C130.451 26.7111 130.696 27.2818 131.187 27.7195C131.68 28.1572 132.318 28.3778 133.098 28.3778ZM132.982 29.4144C131.83 29.4144 130.927 29.1098 130.265 28.504C129.604 27.8983 129.274 27.0719 129.274 26.025C129.274 24.859 129.621 23.9731 130.311 23.3638C131.004 22.7581 132.023 22.457 133.375 22.457H137.247V21.8792C137.247 19.3617 136.165 18.1011 133.998 18.1011C133.354 18.1011 132.734 18.1852 132.142 18.3532C131.55 18.5213 130.927 18.7909 130.265 19.1586L129.852 18.2832C130.601 17.856 131.316 17.5444 131.981 17.3518C132.65 17.1592 133.375 17.0647 134.159 17.0647C136.985 17.0647 138.399 18.6299 138.399 21.7637V29.1833H137.454L137.293 27.7092C136.694 28.2309 136.011 28.6476 135.241 28.9522C134.474 29.2603 133.721 29.4144 132.982 29.4144Z" fill="#000105"/>
<path fill-rule="evenodd" clip-rule="evenodd" d="M145.755 18.1011C145.003 18.1011 144.323 18.2972 143.718 18.6894C143.112 19.0781 142.622 19.6173 142.254 20.3001C141.886 20.9829 141.662 21.7497 141.585 22.5935H149.512V22.408C149.512 21.5781 149.351 20.8253 149.029 20.1495C148.707 19.4737 148.262 18.9625 147.702 18.6194C147.142 18.2727 146.494 18.1011 145.755 18.1011ZM146.193 29.4144C145.01 29.4144 143.984 29.1448 143.105 28.6091C142.229 28.0698 141.557 27.3345 141.091 26.4066C140.622 25.4787 140.388 24.4213 140.388 23.2378C140.388 22.0263 140.633 20.9443 141.127 20.0024C141.617 19.057 142.268 18.3322 143.084 17.8245C143.896 17.3168 144.789 17.0647 145.755 17.0647C146.753 17.0647 147.625 17.3028 148.371 17.779C149.117 18.2552 149.688 18.9065 150.087 19.7363C150.486 20.5662 150.689 21.5011 150.689 22.548C150.689 22.8841 150.672 23.2238 150.64 23.5599H141.564C141.61 24.5298 141.837 25.3772 142.254 26.109C142.667 26.8373 143.217 27.3975 143.903 27.7897C144.586 28.1819 145.349 28.378 146.193 28.378C146.977 28.378 147.646 28.3044 148.199 28.1574C148.753 28.0138 149.334 27.7617 149.95 27.408L150.363 28.2834C149.733 28.6826 149.092 28.9732 148.441 29.1483C147.786 29.3233 147.04 29.4144 146.193 29.4144Z" fill="#000105"/>
<path fill-rule="evenodd" clip-rule="evenodd" d="M152.748 29.1823H153.9V11.9025H152.748V29.1823Z" fill="#000105"/>
<path fill-rule="evenodd" clip-rule="evenodd" d="M162.798 21.5322H166.713C167.959 21.5322 168.933 21.2031 169.64 20.5413C170.347 19.883 170.701 18.9691 170.701 17.7996C170.701 16.6476 170.351 15.7548 169.65 15.1175C168.954 14.4767 167.973 14.1581 166.713 14.1581H162.798V21.5322ZM166.758 22.6392H162.798V29.1834H161.597V13.0556H166.691C168.348 13.0556 169.64 13.4688 170.56 14.2987C171.481 15.1285 171.944 16.2945 171.944 17.8001C171.944 19.0291 171.597 20.0621 170.907 20.8989C170.217 21.7358 169.261 22.2785 168.05 22.5236L172.381 29.1834H170.953L166.758 22.6392Z" fill="#000105"/>
<path fill-rule="evenodd" clip-rule="evenodd" d="M176.156 16.3014C176.156 16.6865 176.209 17.0297 176.317 17.3273C176.426 17.6284 176.625 17.9681 176.916 18.3532C177.206 18.7384 177.669 19.2531 178.299 19.8974C179.542 19.1901 180.435 18.5458 180.971 17.9611C181.51 17.3798 181.779 16.7706 181.779 16.1403C181.779 15.482 181.527 14.9358 181.03 14.5051C180.529 14.0744 179.889 13.8608 179.104 13.8608C178.215 13.8608 177.501 14.0849 176.961 14.5296C176.426 14.9743 176.156 15.5661 176.156 16.3014ZM178.022 28.3779C178.866 28.3779 179.643 28.1538 180.35 27.7091C181.054 27.2644 181.74 26.5571 182.399 25.5872L177.952 21.1193C176.786 21.7776 175.931 22.4464 175.396 23.1221C174.856 23.7979 174.59 24.5297 174.59 25.3141C174.59 26.249 174.898 26.9948 175.522 27.548C176.145 28.1012 176.978 28.3779 178.022 28.3779ZM177.931 29.4142C176.548 29.4142 175.448 29.0465 174.636 28.3077C173.82 27.5689 173.414 26.578 173.414 25.335C173.414 23.4757 174.703 21.8475 177.283 20.4504C176.702 19.8517 176.247 19.337 175.925 18.9063C175.602 18.4756 175.368 18.0694 175.221 17.6843C175.077 17.3026 175.004 16.8474 175.004 16.3257C175.004 15.2963 175.385 14.4559 176.145 13.8011C176.905 13.1499 177.892 12.8242 179.104 12.8242C180.242 12.8242 181.163 13.1253 181.87 13.7346C182.577 14.3404 182.931 15.1352 182.931 16.1191C182.931 16.8859 182.609 17.6352 181.961 18.3635C181.317 19.0954 180.319 19.8272 178.967 20.566L183.068 24.6662C183.498 23.9764 183.89 23.3006 184.244 22.6388L185.326 20.5415H186.478L185.281 22.8244C184.79 23.7453 184.304 24.5892 183.827 25.3595L187.655 29.1831H186.065L183.138 26.2804C181.646 28.3708 179.913 29.4142 177.931 29.4142Z" fill="#000105"/>
<path fill-rule="evenodd" clip-rule="evenodd" d="M200.761 21.119C200.761 18.9516 200.176 17.2499 198.999 16.0139C197.823 14.7779 196.191 14.1581 194.104 14.1581H190.533V28.0764H194.104C196.191 28.0764 197.823 27.4602 198.999 26.2207C200.176 24.9846 200.761 23.2829 200.761 21.119ZM202.007 21.1195C202.007 22.7792 201.682 24.2183 201.027 25.4403C200.376 26.6588 199.455 27.5902 198.275 28.2275C197.091 28.8648 195.708 29.1834 194.126 29.1834H189.332V13.0556H194.126C195.771 13.0556 197.182 13.3918 198.366 14.0676C199.549 14.7433 200.453 15.6887 201.072 16.9038C201.696 18.1153 202.007 19.5229 202.007 21.1195Z" fill="#000105"/>
<path fill-rule="evenodd" clip-rule="evenodd" d="M216.087 29.4142C214.581 29.4142 213.254 29.05 212.109 28.3182C210.964 27.5899 210.085 26.599 209.473 25.3455C208.856 24.0955 208.552 22.6844 208.552 21.1192C208.552 19.491 208.884 18.0414 209.553 16.7739C210.222 15.5063 211.122 14.5329 212.26 13.8501C213.398 13.1639 214.672 12.8242 216.087 12.8242C216.899 12.8242 217.705 12.9363 218.503 13.1569C219.305 13.381 220.019 13.6926 220.649 14.0918L220.257 15.0582C218.92 14.3193 217.554 13.9517 216.153 13.9517C214.865 13.9517 213.737 14.2598 212.778 14.8726C211.819 15.4888 211.08 16.3362 210.569 17.4217C210.05 18.5036 209.795 19.7361 209.795 21.1192C209.795 22.5618 210.068 23.8293 210.614 24.9218C211.157 26.0108 211.91 26.8441 212.873 27.4219C213.832 27.9961 214.924 28.2832 216.153 28.2832C216.892 28.2832 217.596 28.1852 218.261 27.9856C218.93 27.786 219.627 27.4639 220.348 27.0157L220.761 27.9856C220.103 28.4443 219.361 28.7979 218.538 29.0465C217.719 29.2916 216.899 29.4142 216.087 29.4142Z" fill="#000105"/>
<path fill-rule="evenodd" clip-rule="evenodd" d="M226.992 18.1011C226.239 18.1011 225.56 18.2972 224.954 18.6894C224.345 19.0781 223.858 19.6173 223.49 20.3001C223.123 20.9829 222.898 21.7497 222.821 22.5935H230.749V22.408C230.749 21.5781 230.588 20.8253 230.266 20.1495C229.94 19.4737 229.499 18.9625 228.938 18.6194C228.378 18.2727 227.73 18.1011 226.992 18.1011ZM227.428 29.4144C226.245 29.4144 225.216 29.1448 224.34 28.6091C223.465 28.0698 222.793 27.3345 222.327 26.4066C221.858 25.4787 221.623 24.4213 221.623 23.2378C221.623 22.0263 221.868 20.9443 222.358 20.0024C222.852 19.057 223.503 18.3322 224.319 17.8245C225.132 17.3168 226.024 17.0647 226.991 17.0647C227.989 17.0647 228.861 17.3028 229.606 17.779C230.352 18.2552 230.923 18.9065 231.322 19.7363C231.721 20.5662 231.921 21.5011 231.921 22.548C231.921 22.8841 231.907 23.2238 231.875 23.5599H222.796C222.845 24.5298 223.073 25.3772 223.489 26.109C223.903 26.8373 224.452 27.3975 225.135 27.7897C225.818 28.1819 226.585 28.378 227.428 28.378C228.213 28.378 228.882 28.3044 229.435 28.1574C229.988 28.0138 230.569 27.7617 231.186 27.408L231.599 28.2834C230.968 28.6826 230.328 28.9732 229.676 29.1483C229.022 29.3233 228.272 29.4144 227.428 29.4144Z" fill="#000105"/>
<path fill-rule="evenodd" clip-rule="evenodd" d="M233.955 29.1833V17.2923H234.9L235.062 18.7699C236.49 17.6319 237.957 17.0647 239.463 17.0647C240.783 17.0647 241.784 17.4604 242.467 18.2517C243.15 19.043 243.493 20.2125 243.493 21.7637V29.1833H242.341V21.8792C242.341 19.3897 241.291 18.1467 239.186 18.1467C237.758 18.1467 236.396 18.7069 235.107 19.8274V29.1833H233.955Z" fill="#000105"/>
<path fill-rule="evenodd" clip-rule="evenodd" d="M249.97 29.4137C248.786 29.4137 247.911 29.067 247.344 28.3772C246.773 27.6839 246.489 26.6265 246.489 25.1979V18.2615H244.276V17.2916H246.535L246.745 13.8146H247.641V17.2916H252.067V18.2615H247.641V25.1034C247.641 27.2848 248.457 28.3772 250.085 28.3772C250.838 28.3772 251.552 28.1846 252.228 27.7995L252.526 28.6994C252.19 28.913 251.787 29.088 251.318 29.2176C250.849 29.3471 250.4 29.4137 249.97 29.4137Z" fill="#000105"/>
<path fill-rule="evenodd" clip-rule="evenodd" d="M258.202 18.1011C257.449 18.1011 256.77 18.2972 256.164 18.6894C255.555 19.0781 255.068 19.6173 254.701 20.3001C254.333 20.9829 254.109 21.7497 254.032 22.5935H261.959V22.408C261.959 21.5781 261.798 20.8253 261.476 20.1495C261.15 19.4737 260.709 18.9625 260.149 18.6194C259.589 18.2727 258.941 18.1011 258.202 18.1011ZM258.639 29.4144C257.456 29.4144 256.426 29.1448 255.551 28.6091C254.676 28.0698 254.003 27.3345 253.534 26.4066C253.069 25.4787 252.834 24.4213 252.834 23.2378C252.834 22.0263 253.079 20.9443 253.569 20.0024C254.063 19.057 254.714 18.3322 255.53 17.8245C256.342 17.3168 257.235 17.0647 258.202 17.0647C259.2 17.0647 260.072 17.3028 260.817 17.779C261.563 18.2552 262.134 18.9065 262.533 19.7363C262.932 20.5662 263.132 21.5011 263.132 22.548C263.132 22.8841 263.118 23.2238 263.086 23.5599H254.007C254.056 24.5298 254.284 25.3772 254.7 26.109C255.113 26.8373 255.663 27.3975 256.346 27.7897C257.029 28.1819 257.796 28.378 258.639 28.378C259.424 28.378 260.093 28.3044 260.646 28.1574C261.195 28.0138 261.78 27.7617 262.397 27.408L262.81 28.2834C262.179 28.6826 261.539 28.9732 260.887 29.1483C260.233 29.3233 259.483 29.4144 258.639 29.4144Z" fill="#000105"/>
<path fill-rule="evenodd" clip-rule="evenodd" d="M271.225 18.3077C270.857 18.2447 270.51 18.2167 270.188 18.2167C269.544 18.2167 268.882 18.3602 268.206 18.6544C267.53 18.945 266.9 19.3617 266.319 19.8974V29.1833H265.167V17.2923H266.109L266.27 18.8154C266.872 18.2447 267.523 17.8105 268.231 17.5129C268.938 17.2118 269.652 17.0647 270.374 17.0647C270.71 17.0647 271.049 17.1032 271.389 17.1802L271.225 18.3077Z" fill="#000105"/>
</svg>
